<?xml version="1.0" encoding="utf-8"?>
<!-- Generator: Adobe Illustrator 16.0.0, SVG Export Plug-In . SVG Version: 6.00 Build 0)  -->
<!DOCTYPE svg PUBLIC "-//W3C//DTD SVG 1.1//EN" "http://www.w3.org/Graphics/SVG/1.1/DTD/svg11.dtd">
<svg version="1.1" id="Layer_5" xmlns="http://www.w3.org/2000/svg" xmlns:xlink="http://www.w3.org/1999/xlink" x="0px" y="0px"
	 width="512px" height="512px" viewBox="0 0 512 512" enable-background="new 0 0 512 512" xml:space="preserve">
<path fill-rule="evenodd" clip-rule="evenodd" fill="#DD4B39" d="M496.36,143.961c0,0.016-0.016,0.055-0.016,0.07
	c-0.109,0-0.234-0.035-0.344-0.035h-16c-26.516,0-48.008,21.492-48.008,48.004v13.043v2.961c0,8.824-7.156,15.984-16,15.984
	c-8.828,0-15.984-7.16-15.984-15.984V192c0-44.184,35.805-80.008,79.992-80.008h16c8.844,0,16,7.176,16,16.004
	C512.001,136.711,505.048,143.746,496.36,143.961L496.36,143.961z M352.001,143.996h-16c-8.844,0-16-7.156-16-16
	c0-8.703,7-15.754,15.641-15.969c0-0.016,0.016-0.055,0.016-0.07c0.109,0,0.234,0.035,0.344,0.035h16
	c26.516,0,48.008-21.492,48.008-47.988V50.961v-2.957c0-8.848,7.156-16.004,15.984-16.004c8.844,0,16,7.156,16,16.004v16
	C431.993,108.172,396.188,143.996,352.001,143.996L352.001,143.996z M271.993,64.004h-46.016h-81.98
	c-44.188,0-79.992,30.445-79.992,67.992c0,27.16,18.746,50.516,45.832,61.422l-0.051,0.125c6.098,2.262,10.457,8.074,10.457,14.945
	c0,8.844-7.156,16-15.984,16c-2.762,0-5.309-0.75-7.57-1.973c-38.156-15.93-64.688-50.41-64.688-90.52
	C32.001,76.758,82.142,32,143.997,32h127.996c8.844,0,16,7.156,16,16.004C287.993,56.828,280.837,64.004,271.993,64.004
	L271.993,64.004z M88.009,312c0-8.844,7.156-16,16-16c8.828,0,15.984,7.156,15.984,16c0,8.828-7.156,16-15.984,16
	C95.165,328,88.009,320.828,88.009,312L88.009,312z M38.888,323.75c2.586-1.938,5.758-3.125,9.238-3.125
	c8.559,0,15.5,6.922,15.5,15.5c0,5.219-2.602,9.828-6.566,12.633l0.129,0.164c-15.664,10.508-25.188,24.125-25.188,39.062
	c0,33.156,46.57,60.016,103.992,60.016c57.445,0,104.016-26.859,104.016-60.016c0-20.234-17.422-38.078-44.023-48.953l0.051-0.156
	c-30.496-12.219-52.039-41.969-52.039-76.82c0-31.465,17.543-58.824,43.375-72.832l-0.055-0.09
	c22.066-12.109,36.688-33.152,36.688-57.137c0-5.312-0.789-10.461-2.152-15.43l0.125-0.035c-0.43-1.453-0.734-2.941-0.734-4.539
	c0-8.828,7.176-16.004,16-16.004c8.234,0,14.945,6.246,15.824,14.227c1.777,7.035,2.941,14.281,2.941,21.781
	c0,34.801-20.055,65.281-50.266,83.184c-0.898,0.68-1.992,1.418-3.516,2.277c-3.984,2.242-7.734,5.059-11.121,8.449
	c-20.094,20.109-20.094,52.688,0,72.797c5.039,5.023,10.871,8.812,17.094,11.32c1.473,0.594,2.477,1.188,3.301,1.742
	c36.363,16.523,60.492,44.383,60.492,76.219c0,50.828-60.887,92.016-136,92.016C60.884,480,0.001,438.812,0.001,387.984
	c0-25.039,14.832-47.719,38.832-64.312L38.888,323.75L38.888,323.75z"/>
</svg>
