<?xml version="1.0" encoding="utf-8"?>
<!-- Generator: Adobe Illustrator 16.0.0, SVG Export Plug-In . SVG Version: 6.00 Build 0)  -->
<!DOCTYPE svg PUBLIC "-//W3C//DTD SVG 1.1//EN" "http://www.w3.org/Graphics/SVG/1.1/DTD/svg11.dtd">
<svg version="1.1" id="Layer_1" xmlns="http://www.w3.org/2000/svg" xmlns:xlink="http://www.w3.org/1999/xlink" x="0px" y="0px"
	 width="64px" height="64px" viewBox="0 0 64 64" enable-background="new 0 0 64 64" xml:space="preserve">
<path fill-rule="evenodd" clip-rule="evenodd" fill="#FFFC00" d="M58,52c-0.471,0-1.205,0-2,0v2c0,2.209-1.791,4-4,4h-7.52
	c-2.934,3.656-7.431,6-12.48,6s-9.547-2.344-12.48-6H12c-2.208,0-4-1.791-4-4v-2c-0.795,0-1.53,0-2,0c-3.314,0-6-2.687-6-6
	c0-3.042,2.271-5.529,5.208-5.92c0.004-0.002,0-0.015,0.007-0.015c3.612-0.55,6.398-3.527,6.723-7.21
	c-0.029-0.996-0.56-1.891-1.409-2.356l-5.425-2.698c-0.984-0.489-1.389-1.689-0.902-2.679c0.487-0.988,1.683-1.396,2.667-0.906
	l5.484,2.728c2.075,1.105,3.503,3.243,3.624,5.729c-0.245,5.791-4.584,10.521-10.206,11.353C4.776,44.139,4,44.975,4,46
	c0,1.105,0.895,2,2,2h2c2.208,0,4,1.791,4,4c0,1.105,0.895,2,2,2h2.938c2.65,0,5.06,1.03,6.849,2.713
	c0.194,0.182,0.427,0.308,0.676,0.407c-0.046,0.034-0.08,0.08-0.126,0.114C26.417,58.96,29.086,60,32,60s5.583-1.04,7.663-2.766
	c-0.046-0.034-0.08-0.08-0.126-0.114c0.25-0.1,0.482-0.226,0.676-0.407C42.002,55.03,44.412,54,47.062,54H50c1.105,0,2-0.895,2-2
	c0-2.209,1.791-4,4-4h2c1.105,0,2-0.895,2-2c0-1.009-0.749-1.835-1.721-1.971c-0.111,0.02-0.227,0.034-0.342,0.034
	c-1.104,0-2-0.897-2-2c0-1.105,0.896-2.001,2-2.001c0.021,0,0.041,0.006,0.062,0.006V40c3.314,0,6,2.687,6,6S61.314,52,58,52L58,52z
	 M53.938,38.062c0,1.104-0.895,2-2,2c-1.104,0-2-0.896-2-2c0-1.104,0.896-1.999,2-1.999C53.043,36.063,53.938,36.958,53.938,38.062
	L53.938,38.062z M58.896,27.801l-3.309,1.646c-0.005,0.002-0.015,0.002-0.02,0.005C54.865,29.804,54.072,30,53.234,30
	C50.344,30,48,27.656,48,24.766V20c0-8.836-7.164-16-16-16c-8.836,0-16,7.164-16,16v2c0,1.105-0.895,2-2,2s-2-0.895-2-2
	c0-0.718,0-1.401,0-2C12,8.955,20.955,0,32,0s20,8.955,20,20c0,1.225,0,2.883,0,4.718C52,25.426,52.574,26,53.282,26
	c0.157,0,0.306-0.036,0.444-0.09l3.406-1.694c0.983-0.489,2.179-0.082,2.666,0.906C60.286,26.111,59.881,27.312,58.896,27.801
	L58.896,27.801z"/>
</svg>
