<?xml version="1.0" encoding="utf-8"?>
<!-- Generator: Adobe Illustrator 16.0.0, SVG Export Plug-In . SVG Version: 6.00 Build 0)  -->
<!DOCTYPE svg PUBLIC "-//W3C//DTD SVG 1.1//EN" "http://www.w3.org/Graphics/SVG/1.1/DTD/svg11.dtd">
<svg version="1.1" id="Layer_1" xmlns="http://www.w3.org/2000/svg" xmlns:xlink="http://www.w3.org/1999/xlink" x="0px" y="0px"
	 width="64px" height="64px" viewBox="0 0 64 64" enable-background="new 0 0 64 64" xml:space="preserve">
<path fill-rule="evenodd" clip-rule="evenodd" fill="#3AA1E0" d="M46,39.5C46,45.299,39.73,50,32,50
	c-7.307,0-13.28-4.203-13.918-9.561c-0.01-0.047-0.014-0.096-0.021-0.141c-0.002-0.029-0.01-0.059-0.012-0.088h0.005
	c-0.008-0.07-0.022-0.139-0.022-0.211c0-1.105,0.895-2,2-2c1.084,0,1.962,0.865,1.993,1.941l0.01-0.002
	C22.383,43.324,26.705,46,32,46c5.522,0,10-2.909,10-6.5c0-3.59-5.571-5.626-10.999-6.938c-0.182-0.044-0.356-0.063-0.533-0.095
	C24.546,31.144,18,28.16,18,22.5C18,16.701,23.82,12,31.001,12c6.788,0,12.335,4.211,12.919,9.573
	c0.012,0.051,0.015,0.104,0.021,0.155c0.005,0.048,0.015,0.097,0.02,0.148h-0.005c0.003,0.041,0.013,0.08,0.013,0.124
	c0,1.105-0.895,2-2,2c-1.062,0-1.923-0.832-1.988-1.876h-0.007C39.702,18.71,35.794,16,31.001,16C26.029,16,22,18.909,22,22.5
	c0,2.902,4.633,4.97,9.001,5.971v-0.002C38.388,30.031,46,33.045,46,39.5L46,39.5z M59.001,40c-1.105,0-2-0.895-2-2s0.895-2,2-2
	c1.104,0,2,0.895,2,2S60.104,40,59.001,40L59.001,40z M48,64c-2.803,0-5.431-0.734-7.721-2.002c-0.052-0.022-0.1-0.031-0.153-0.061
	c-0.574-0.318-1.236-0.5-1.939-0.5c-0.255,0-0.504,0.024-0.747,0.07c-0.259,0.049-0.504,0.075-0.741,0.092
	C35.169,61.852,33.603,62,32,62C15.431,62,2,48.57,2,32c0-1.603,0.147-3.166,0.4-4.698c0.017-0.237,0.043-0.482,0.092-0.742
	c0.046-0.243,0.07-0.492,0.07-0.747c0-0.703-0.182-1.365-0.499-1.939c-0.029-0.054-0.039-0.102-0.062-0.153
	C0.734,21.43,0,18.802,0,16C0,7.164,7.164,0,16,0c2.803,0,5.431,0.734,7.721,2.002c0.052,0.022,0.1,0.032,0.153,0.061
	c0.574,0.318,1.236,0.5,1.939,0.5c0.255,0,0.504-0.024,0.747-0.07c0.259-0.049,0.504-0.075,0.741-0.092C28.834,2.148,30.397,2,32,2
	c15.75,0,28.621,12.15,29.857,27.583c0.138,0.643-0.008,1.333-0.505,1.83c-0.783,0.783-2.048,0.783-2.829,0
	c-0.356-0.354-0.528-0.814-0.56-1.277l-0.059,0.002C56.947,16.652,45.73,6,32,6c-1.439,0-2.851,0.126-4.226,0.352
	c-0.131,0.017-0.257,0.029-0.393,0.058c-0.507,0.1-1.032,0.153-1.568,0.153c-1.428,0-2.769-0.374-3.93-1.03
	c-0.16-0.09-0.306-0.16-0.441-0.218C19.811,4.475,17.961,4,16,4C9.372,4,4,9.372,4,16c0,1.961,0.475,3.811,1.314,5.442
	c0.058,0.136,0.128,0.281,0.218,0.441c0.657,1.161,1.03,2.502,1.03,3.93c0,0.536-0.054,1.062-0.152,1.568
	c-0.029,0.136-0.042,0.262-0.059,0.39C6.126,29.149,6,30.56,6,32c0,14.359,11.641,26,26,26c1.44,0,2.851-0.126,4.228-0.352
	c0.129-0.018,0.255-0.029,0.391-0.059c0.507-0.1,1.032-0.152,1.568-0.152c1.428,0,2.769,0.373,3.93,1.03
	c0.16,0.09,0.306,0.16,0.441,0.218C44.189,59.525,46.039,60,48,60c6.628,0,12-5.372,12-12c0-1.105,0.895-2,2-2s2,0.895,2,2
	C64,56.836,56.836,64,48,64L48,64z"/>
</svg>
