<?xml version="1.0" encoding="utf-8"?>
<!-- Generator: Adobe Illustrator 16.0.0, SVG Export Plug-In . SVG Version: 6.00 Build 0)  -->
<!DOCTYPE svg PUBLIC "-//W3C//DTD SVG 1.1//EN" "http://www.w3.org/Graphics/SVG/1.1/DTD/svg11.dtd">
<svg version="1.1" id="Layer_1" xmlns="http://www.w3.org/2000/svg" xmlns:xlink="http://www.w3.org/1999/xlink" x="0px" y="0px"
	 width="64px" height="64px" viewBox="0 0 64 64" enable-background="new 0 0 64 64" xml:space="preserve">
<path fill-rule="evenodd" clip-rule="evenodd" fill="#DD4B39" d="M62.043,31.998c0,0.002,0,0.002-0.002,0.002
	c-0.012,0-0.026,0-0.041,0h-2c-3.314,0-6,2.687-6,6v2c0,1.105-0.895,2-2,2s-2-0.895-2-2v-2c0-5.522,4.478-10,10-10h2
	c1.105,0,2,0.895,2,2C64,31.091,63.127,31.974,62.043,31.998L62.043,31.998z M44,32h-2c-1.105,0-2-0.895-2-2
	c0-1.091,0.873-1.974,1.957-1.998c0-0.002,0-0.002,0.002-0.002c0.012,0,0.026,0,0.041,0h2c3.314,0,6-2.687,6-6v-2
	c0-1.105,0.895-2,2-2s2,0.895,2,2v2C54,27.522,49.522,32,44,32L44,32z M18,48C8.058,48,0,39.941,0,30s8.058-18,18-18
	c1.447,0,2.844,0.194,4.191,0.519C23.205,12.616,24,13.462,24,14.499c0,1.105-0.895,2-2,2c-0.177,0-0.347-0.028-0.509-0.072
	l-0.008,0.026C20.366,16.167,19.205,16,18,16c-7.731,0-14,6.27-14,14s6.269,14,14,14c6.703,0,12.284-4.72,13.653-11.014
	C31.646,32.441,31.203,32,30.657,32H18c-1.105,0-2-0.895-2-2s0.895-2,2-2h12.657c2.761,0,5,2.237,5,4.999
	c0,0.356-0.054,0.695-0.124,1.027C33.699,42.026,26.555,48,18,48L18,48z M30,20c-1.105,0-2-0.895-2-2s0.895-2,2-2s2,0.895,2,2
	S31.105,20,30,20L30,20z"/>
</svg>
