<?xml version="1.0" encoding="utf-8"?>
<!-- Generator: Adobe Illustrator 16.0.0, SVG Export Plug-In . SVG Version: 6.00 Build 0)  -->
<!DOCTYPE svg PUBLIC "-//W3C//DTD SVG 1.1//EN" "http://www.w3.org/Graphics/SVG/1.1/DTD/svg11.dtd">
<svg version="1.1" id="Layer_1" xmlns="http://www.w3.org/2000/svg" xmlns:xlink="http://www.w3.org/1999/xlink" x="0px" y="0px"
	 width="64px" height="64px" viewBox="0 0 64 64" enable-background="new 0 0 64 64" xml:space="preserve">
<path fill-rule="evenodd" clip-rule="evenodd" fill="#00B900" d="M50,30c-1.105,0-2-0.895-2-2s0.895-2,2-2s2,0.895,2,2
	S51.105,30,50,30L50,30z M50,36h-6c-1.105,0-2-0.895-2-2V22c0-1.105,0.895-2,2-2h6c1.105,0,2,0.895,2,2s-0.895,2-2,2h-4v8h4
	c1.105,0,2,0.895,2,2S51.105,36,50,36L50,36z M33.266,63.653C32.793,63.871,32.271,64,31.719,64C29.665,64,28,62.335,28,60.281
	v-6.344c0-1.104,0.895-2,2-2s2,0.896,2,2v3.75c0,0.725,0.587,1.313,1.312,1.313c0.204,0,0.396-0.048,0.567-0.131
	C46.771,51.445,60,40.041,60,28C60,14.744,47.464,4,32,4S4,14.744,4,28c0,6.393,2.924,12.194,7.678,16.494
	c0.424,0.366,0.698,0.902,0.698,1.506c0,1.105-0.897,2-2,2c-0.505,0-0.96-0.191-1.312-0.499l-0.01,0.01C3.452,42.468,0,35.588,0,28
	C0,12.536,14.327,0,32,0s32,12.536,32,28C64,42.657,48.157,56.332,33.266,63.653L33.266,63.653z M12,22c0-1.105,0.895-2,2-2
	s2,0.895,2,2v10h2c1.105,0,2,0.895,2,2s-0.895,2-2,2h-4c-1.105,0-2-0.895-2-2V22L12,22z M18,48c1.105,0,2,0.895,2,2s-0.895,2-2,2
	s-2-0.895-2-2S16.895,48,18,48L18,48z M24,20c1.105,0,2,0.895,2,2v12c0,1.105-0.895,2-2,2s-2-0.895-2-2V22
	C22,20.895,22.895,20,24,20L24,20z M30,20c1.033,0,1.871,0.783,1.979,1.787L36,26.968V22c0-1.105,0.895-2,2-2s2,0.895,2,2v12
	c0,1.105-0.895,2-2,2s-2-0.895-2-2v-0.509l-4-5.151V34c0,1.105-0.895,2-2,2s-2-0.895-2-2V22C28,20.895,28.895,20,30,20L30,20z"/>
</svg>
