<?xml version="1.0" encoding="utf-8"?>
<!-- Generator: Adobe Illustrator 16.0.0, SVG Export Plug-In . SVG Version: 6.00 Build 0)  -->
<!DOCTYPE svg PUBLIC "-//W3C//DTD SVG 1.1//EN" "http://www.w3.org/Graphics/SVG/1.1/DTD/svg11.dtd">
<svg version="1.1" id="Layer_1" xmlns="http://www.w3.org/2000/svg" xmlns:xlink="http://www.w3.org/1999/xlink" x="0px" y="0px"
	 width="64px" height="64px" viewBox="0 0 64 64" enable-background="new 0 0 64 64" xml:space="preserve">
<path fill-rule="evenodd" clip-rule="evenodd" fill="#EA4C89" d="M63.976,32.934c-0.131,2.826-2.453,5.078-5.309,5.066
	c-0.558-0.002-1.091-0.09-1.596-0.25c-0.012-0.005-0.021-0.002-0.034-0.007C53.559,36.621,49.852,36,46,36
	c-1.074,0-2.131,0.07-3.181,0.165c-0.497,0.106-0.855,0.55-0.817,1.071c0.008,0.092,0.027,0.182,0.057,0.265
	c0.012,0.033-0.018,0.031-0.034,0.041c1.942,5.811,3.351,11.864,4.155,18.111c0.002,0.005,0.012,0,0.014,0.007
	c0.029,0.15,0.176,0.277,0.315,0.245c4.886-2.979,8.776-7.411,11.094-12.698c0.017,0.008,0.036,0.015,0.054,0.022
	C57.957,42.507,58.669,42,59.5,42c1.104,0,2,0.895,2,2c0,0.296-0.07,0.577-0.184,0.829l0,0c-2.703,6.167-7.302,11.307-13.047,14.71
	c-0.412,0.206-0.852,0.366-1.334,0.427c-2.303,0.294-4.407-1.338-4.698-3.641c-0.009-0.065-0.056-0.144-0.079-0.216
	c-0.76-5.828-2.047-11.488-3.836-16.927c-0.005-0.075-0.007-0.149-0.041-0.247c-0.141-0.407-0.23-0.839-0.267-1.289
	c-0.204-2.65,1.642-4.96,4.196-5.438C43.459,32.085,44.718,32,46,32c4.283,0,8.407,0.679,12.276,1.928
	C58.404,33.971,58.538,34,58.682,34c0.646,0.002,1.158-0.471,1.272-1.084C59.966,32.611,60,32.311,60,32
	c0-4.71-1.186-9.137-3.241-13.03c0.007-0.005,0.017-0.01,0.026-0.015c-0.157-0.283-0.254-0.605-0.254-0.955c0-1.105,0.896-2,2-2
	c0.777,0,1.444,0.448,1.776,1.099c0.003,0,0.005-0.003,0.008-0.005C62.664,21.547,64,26.616,64,32
	C64,32.312,63.985,32.623,63.976,32.934L63.976,32.934z M52.567,15.016c-3.624,3.266-7.763,6.106-12.329,8.4
	c-0.105,0.072-0.207,0.147-0.361,0.223c-1.496,0.734-2.188,2.432-1.719,3.976c0,0.003-0.003,0.005-0.006,0.008
	c1.295,4.54-1.119,9.258-5.439,10.926c-0.007,0.003-0.002,0.021-0.007,0.026c-6.599,2.626-12.238,7.14-16.245,12.885
	c-0.805,1.419-0.495,3.203,0.744,4.265c3.806,2.381,8.213,3.886,12.958,4.199l-0.002,0.031c1.028,0.082,1.84,0.934,1.84,1.983
	c0,1.104-0.895,2-2,2c-0.143,0-0.281-0.015-0.415-0.044c-5.321-0.397-10.264-2.116-14.541-4.8c-3.14-2.276-3.937-6.57-1.905-9.831
	c4.473-6.448,10.775-11.52,18.174-14.445c0.048-0.032,0.09-0.056,0.102-0.061c2.358-0.96,3.631-3.586,2.86-6.063
	c-0.032-0.102-0.046-0.185-0.065-0.274c-0.775-3.255,0.717-6.722,3.789-8.349c4.347-2.126,8.273-4.78,11.707-7.84
	c0.419-0.623,0.342-1.423-0.148-1.969C44.754,6.368,38.666,4,32,4c-2.732,0-5.36,0.424-7.854,1.159
	c-0.119,0.123-0.177,0.298-0.126,0.475c0.017,0.065,0.048,0.124,0.087,0.175c0.007,0.01-0.012,0.005-0.017,0.005
	c3.466,4.075,6.594,8.446,9.353,13.064c1.001,2.319,0.548,4.967-1.064,6.821c0.014,0.024,0.021,0.054,0.039,0.078
	c0.116,0.191-0.02,0.239-0.301,0.201c-0.375,0.385-0.788,0.744-1.275,1.035c-0.291,0.174-0.594,0.317-0.902,0.443
	C24.308,29.096,18.281,30,12,30c-0.962,0-1.91-0.031-2.858-0.059c-4.08-0.271-7.253-3.716-7.139-7.84
	c0.027-0.975,0.243-1.896,0.596-2.744c2.185-5.069,5.651-9.444,9.976-12.759C12.938,6.23,13.442,6,14,6c1.105,0,2,0.895,2,2
	c0,0.654-0.317,1.229-0.805,1.596l0.026,0.033c-3.954,2.97-7.091,6.96-9.03,11.583C6.083,21.554,6.002,21.91,6,22.288
	c-0.017,1.967,1.527,3.571,3.477,3.666C10.312,25.976,11.149,26,12,26c5.777,0,11.326-0.805,16.517-2.278
	c0.102-0.047,0.208-0.075,0.308-0.139c0.975-0.602,1.377-1.768,1.062-2.814c-2.589-4.312-5.522-8.393-8.756-12.211
	c-0.024-0.056-0.042-0.109-0.085-0.162c-0.39-0.466-0.691-1.021-0.87-1.642c-0.665-2.311,0.621-4.7,2.868-5.467
	C25.886,0.458,28.89,0,32,0c7.576,0,14.531,2.638,20.012,7.037c2.279,1.938,2.657,5.334,0.801,7.712
	C52.736,14.846,52.647,14.924,52.567,15.016L52.567,15.016z M3.993,33.935c0.032,0,0.073,0.003,0.102,0.003
	c0.327,4.734,1.842,9.129,4.23,12.926c-0.012,0.01-0.026,0.017-0.036,0.026C8.5,47.207,8.625,47.588,8.625,48c0,1.105-0.897,2-2,2
	c-0.877,0-1.615-0.569-1.886-1.355c-2.514-4.113-4.152-8.819-4.586-13.883C0.056,34.526,0,34.27,0,34c0-1.105,0.895-2,2-2
	C3.083,32,3.959,32.86,3.993,33.935L3.993,33.935z M38,60c1.105,0,2,0.895,2,2s-0.895,2-2,2s-2-0.895-2-2S36.895,60,38,60L38,60z"/>
</svg>
